<svg xmlns="http://www.w3.org/2000/svg" width="128" height="128" shape-rendering="crispEdges"><rect x="0" y="0" width="128" height="1" fill="rgb(127.5,127.5,127.5)" fill-opacity="0.5"/><rect x="0" y="1" width="128" height="1" fill="rgb(127.5,127.5,127.5)" fill-opacity="0.5"/><rect x="0" y="2" width="128" height="1" fill="rgb(127.5,127.5,127.5)" fill-opacity="0.5"/><rect x="0" y="3" width="128" height="1" fill="rgb(127.5,127.5,127.5)" fill-opacity="0.5"/><rect x="0" y="4" width="128" height="1" fill="rgb(127.5,127.5,127.5)" fill-opacity="0.5"/><rect x="0" y="5" width="128" height="1" fill="rgb(127.5,127.5,127.5)" fill-opacity="0.5"/><rect x="0" y="6" width="128" height="1" fill="rgb(127.5,127.5,127.5)" fill-opacity="0.5"/><rect x="0" y="7" width="128" height="1" fill="rgb(127.5,127.5,127.5)" fill-opacity="0.5"/><rect x="0" y="8" width="128" height="1" fill="rgb(127.5,127.5,127.5)" fill-opacity="0.5"/><rect x="0" y="9" width="128" height="1" fill="rgb(127.5,127.5,127.5)" fill-opacity="0.5"/><rect x="0" y="10" width="128" height="1" fill="rgb(127.5,127.5,127.5)" fill-opacity="0.5"/><rect x="0" y="11" width="128" height="1" fill="rgb(127.5,127.5,127.5)" fill-opacity="0.5"/><rect x="0" y="12" width="128" height="1" fill="rgb(127.5,127.5,127.5)" fill-opacity="0.5"/><rect x="0" y="13" width="128" height="1" fill="rgb(127.5,127.5,127.5)" fill-opacity="0.5"/><rect x="0" y="14" width="128" height="1" fill="rgb(127.5,127.5,127.5)" fill-opacity="0.5"/><rect x="0" y="15" width="128" height="1" fill="rgb(127.5,127.5,127.5)" fill-opacity="0.5"/><rect x="0" y="16" width="128" height="1" fill="rgb(127.5,127.5,127.5)" fill-opacity="0.5"/><rect x="0" y="17" width="128" height="1" fill="rgb(127.5,127.5,127.5)" fill-opacity="0.5"/><rect x="0" y="18" width="128" height="1" fill="rgb(127.5,127.5,127.5)" fill-opacity="0.5"/><rect x="0" y="19" width="128" height="1" fill="rgb(127.5,127.5,127.5)" fill-opacity="0.5"/><rect x="0" y="20" width="128" height="1" fill="rgb(127.5,127.5,127.5)" fill-opacity="0.5"/><rect x="0" y="21" width="128" height="1" fill="rgb(127.5,127.5,127.5)" fill-opacity="0.5"/><rect x="0" y="22" width="128" height="1" fill="rgb(127.5,127.5,127.5)" fill-opacity="0.5"/><rect x="0" y="23" width="23" height="1" fill="rgb(127.5,127.5,127.5)" fill-opacity="0.5"/><rect x="65" y="23" width="63" height="1" fill="rgb(127.5,127.5,127.5)" fill-opacity="0.5"/><rect x="0" y="24" width="23" height="1" fill="rgb(127.5,127.5,127.5)" fill-opacity="0.5"/><rect x="24" y="24" width="1" height="1" fill="rgb(255.0,255.0,255.0)" fill-opacity="1"/><rect x="25" y="24" width="38" height="1" fill="rgb(255.0,255.0,223.5)" fill-opacity="1"/><rect x="63" y="24" width="1" height="1" fill="rgb(255.0,255.0,255.0)" fill-opacity="1"/><rect x="65" y="24" width="63" height="1" fill="rgb(127.5,127.5,127.5)" fill-opacity="0.5"/><rect x="0" y="25" width="23" height="1" fill="rgb(127.5,127.5,127.5)" fill-opacity="0.5"/><rect x="24" y="25" width="1" height="1" fill="rgb(255.0,255.0,223.5)" fill-opacity="1"/><rect x="25" y="25" width="38" height="1" fill="rgb(127.5,127.5,127.5)" fill-opacity="0.5"/><rect x="63" y="25" width="1" height="1" fill="rgb(255.0,255.0,223.5)" fill-opacity="1"/><rect x="65" y="25" width="63" height="1" fill="rgb(127.5,127.5,127.5)" fill-opacity="0.5"/><rect x="0" y="26" width="23" height="1" fill="rgb(127.5,127.5,127.5)" fill-opacity="0.5"/><rect x="24" y="26" width="1" height="1" fill="rgb(255.0,255.0,223.5)" fill-opacity="1"/><rect x="25" y="26" width="38" height="1" fill="rgb(127.5,127.5,127.5)" fill-opacity="0.5"/><rect x="63" y="26" width="1" height="1" fill="rgb(255.0,255.0,223.5)" fill-opacity="1"/><rect x="65" y="26" width="63" height="1" fill="rgb(127.5,127.5,127.5)" fill-opacity="0.5"/><rect x="0" y="27" width="23" height="1" fill="rgb(127.5,127.5,127.5)" fill-opacity="0.5"/><rect x="24" y="27" width="1" height="1" fill="rgb(255.0,255.0,223.5)" fill-opacity="1"/><rect x="25" y="27" width="38" height="1" fill="rgb(127.5,127.5,127.5)" fill-opacity="0.5"/><rect x="63" y="27" width="1" height="1" fill="rgb(255.0,255.0,223.5)" fill-opacity="1"/><rect x="65" y="27" width="63" height="1" fill="rgb(127.5,127.5,127.5)" fill-opacity="0.5"/><rect x="0" y="28" width="23" height="1" fill="rgb(127.5,127.5,127.5)" fill-opacity="0.5"/><rect x="24" y="28" width="1" height="1" fill="rgb(255.0,255.0,223.5)" fill-opacity="1"/><rect x="25" y="28" width="38" height="1" fill="rgb(127.5,127.5,127.5)" fill-opacity="0.5"/><rect x="63" y="28" width="1" height="1" fill="rgb(255.0,255.0,223.5)" fill-opacity="1"/><rect x="65" y="28" width="63" height="1" fill="rgb(127.5,127.5,127.5)" fill-opacity="0.5"/><rect x="0" y="29" width="23" height="1" fill="rgb(127.5,127.5,127.5)" fill-opacity="0.5"/><rect x="24" y="29" width="1" height="1" fill="rgb(255.0,255.0,223.5)" fill-opacity="1"/><rect x="25" y="29" width="38" height="1" fill="rgb(127.5,127.5,127.5)" fill-opacity="0.5"/><rect x="63" y="29" width="1" height="1" fill="rgb(255.0,255.0,223.5)" fill-opacity="1"/><rect x="65" y="29" width="63" height="1" fill="rgb(127.5,127.5,127.5)" fill-opacity="0.5"/><rect x="0" y="30" width="23" height="1" fill="rgb(127.5,127.5,127.5)" fill-opacity="0.5"/><rect x="24" y="30" width="1" height="1" fill="rgb(255.0,255.0,223.5)" fill-opacity="1"/><rect x="25" y="30" width="38" height="1" fill="rgb(127.5,127.5,127.5)" fill-opacity="0.5"/><rect x="63" y="30" width="1" height="1" fill="rgb(255.0,255.0,223.5)" fill-opacity="1"/><rect x="65" y="30" width="63" height="1" fill="rgb(127.5,127.5,127.5)" fill-opacity="0.5"/><rect x="0" y="31" width="23" height="1" fill="rgb(127.5,127.5,127.5)" fill-opacity="0.5"/><rect x="24" y="31" width="1" height="1" fill="rgb(255.0,255.0,223.5)" fill-opacity="1"/><rect x="25" y="31" width="38" height="1" fill="rgb(127.5,127.5,127.5)" fill-opacity="0.5"/><rect x="63" y="31" width="1" height="1" fill="rgb(255.0,255.0,223.5)" fill-opacity="1"/><rect x="65" y="31" width="63" height="1" fill="rgb(127.5,127.5,127.5)" fill-opacity="0.5"/><rect x="0" y="32" width="23" height="1" fill="rgb(127.5,127.5,127.5)" fill-opacity="0.5"/><rect x="24" y="32" width="1" height="1" fill="rgb(255.0,255.0,223.5)" fill-opacity="1"/><rect x="25" y="32" width="38" height="1" fill="rgb(127.5,127.5,127.5)" fill-opacity="0.5"/><rect x="63" y="32" width="1" height="1" fill="rgb(255.0,255.0,223.5)" fill-opacity="1"/><rect x="65" y="32" width="63" height="1" fill="rgb(127.5,127.5,127.5)" fill-opacity="0.5"/><rect x="0" y="33" width="23" height="1" fill="rgb(127.5,127.5,127.5)" fill-opacity="0.5"/><rect x="24" y="33" width="1" height="1" fill="rgb(255.0,255.0,223.5)" fill-opacity="1"/><rect x="25" y="33" width="38" height="1" fill="rgb(127.5,127.5,127.5)" fill-opacity="0.5"/><rect x="63" y="33" width="1" height="1" fill="rgb(255.0,255.0,223.5)" fill-opacity="1"/><rect x="65" y="33" width="63" height="1" fill="rgb(127.5,127.5,127.5)" fill-opacity="0.5"/><rect x="0" y="34" width="23" height="1" fill="rgb(127.5,127.5,127.5)" fill-opacity="0.5"/><rect x="24" y="34" width="1" height="1" fill="rgb(255.0,255.0,223.5)" fill-opacity="1"/><rect x="25" y="34" width="38" height="1" fill="rgb(127.5,127.5,127.5)" fill-opacity="0.5"/><rect x="63" y="34" width="1" height="1" fill="rgb(255.0,255.0,223.5)" fill-opacity="1"/><rect x="65" y="34" width="63" height="1" fill="rgb(127.5,127.5,127.5)" fill-opacity="0.5"/><rect x="0" y="35" width="23" height="1" fill="rgb(127.5,127.5,127.5)" fill-opacity="0.5"/><rect x="24" y="35" width="1" height="1" fill="rgb(255.0,255.0,223.5)" fill-opacity="1"/><rect x="25" y="35" width="38" height="1" fill="rgb(127.5,127.5,127.5)" fill-opacity="0.5"/><rect x="63" y="35" width="1" height="1" fill="rgb(255.0,255.0,223.5)" fill-opacity="1"/><rect x="65" y="35" width="63" height="1" fill="rgb(127.5,127.5,127.5)" fill-opacity="0.5"/><rect x="0" y="36" width="23" height="1" fill="rgb(127.5,127.5,127.5)" fill-opacity="0.5"/><rect x="24" y="36" width="1" height="1" fill="rgb(255.0,255.0,223.5)" fill-opacity="1"/><rect x="25" y="36" width="38" height="1" fill="rgb(127.5,127.5,127.5)" fill-opacity="0.5"/><rect x="63" y="36" width="1" height="1" fill="rgb(255.0,255.0,223.5)" fill-opacity="1"/><rect x="65" y="36" width="63" height="1" fill="rgb(127.5,127.5,127.5)" fill-opacity="0.5"/><rect x="0" y="37" width="23" height="1" fill="rgb(127.5,127.5,127.5)" fill-opacity="0.5"/><rect x="24" y="37" width="1" height="1" fill="rgb(255.0,255.0,223.5)" fill-opacity="1"/><rect x="25" y="37" width="38" height="1" fill="rgb(127.5,127.5,127.5)" fill-opacity="0.5"/><rect x="63" y="37" width="1" height="1" fill="rgb(255.0,255.0,223.5)" fill-opacity="1"/><rect x="65" y="37" width="63" height="1" fill="rgb(127.5,127.5,127.5)" fill-opacity="0.5"/><rect x="0" y="38" width="23" height="1" fill="rgb(127.5,127.5,127.5)" fill-opacity="0.5"/><rect x="24" y="38" width="1" height="1" fill="rgb(255.0,255.0,223.5)" fill-opacity="1"/><rect x="25" y="38" width="38" height="1" fill="rgb(127.5,127.5,127.5)" fill-opacity="0.5"/><rect x="63" y="38" width="1" height="1" fill="rgb(255.0,255.0,223.5)" fill-opacity="1"/><rect x="65" y="38" width="63" height="1" fill="rgb(127.5,127.5,127.5)" fill-opacity="0.5"/><rect x="0" y="39" width="23" height="1" fill="rgb(127.5,127.5,127.5)" fill-opacity="0.5"/><rect x="24" y="39" width="1" height="1" fill="rgb(255.0,255.0,223.5)" fill-opacity="1"/><rect x="25" y="39" width="38" height="1" fill="rgb(127.5,127.5,127.5)" fill-opacity="0.5"/><rect x="63" y="39" width="1" height="1" fill="rgb(255.0,255.0,127.5)" fill-opacity="1"/><rect x="105" y="39" width="23" height="1" fill="rgb(127.5,127.5,127.5)" fill-opacity="0.5"/><rect x="0" y="40" width="23" height="1" fill="rgb(127.5,127.5,127.5)" fill-opacity="0.5"/><rect x="24" y="40" width="1" height="1" fill="rgb(255.0,255.0,223.5)" fill-opacity="1"/><rect x="25" y="40" width="38" height="1" fill="rgb(127.5,127.5,127.5)" fill-opacity="0.5"/><rect x="63" y="40" width="1" height="1" fill="rgb(255.0,255.0,31.5)" fill-opacity="1"/><rect x="64" y="40" width="1" height="1" fill="rgb(0.0,255.0,255.0)" fill-opacity="0.0098039"/><rect x="65" y="40" width="38" height="1" fill="rgb(175.5,255.0,255.0)" fill-opacity="1"/><rect x="103" y="40" width="1" height="1" fill="rgb(207.5,255.0,255.0)" fill-opacity="1"/><rect x="105" y="40" width="23" height="1" fill="rgb(127.5,127.5,127.5)" fill-opacity="0.5"/><rect x="0" y="41" width="23" height="1" fill="rgb(127.5,127.5,127.5)" fill-opacity="0.5"/><rect x="24" y="41" width="1" height="1" fill="rgb(255.0,255.0,223.5)" fill-opacity="1"/><rect x="25" y="41" width="38" height="1" fill="rgb(127.5,127.5,127.5)" fill-opacity="0.5"/><rect x="63" y="41" width="1" height="1" fill="rgb(255.0,223.5,0.0)" fill-opacity="1"/><rect x="65" y="41" width="38" height="1" fill="rgb(127.5,127.5,127.5)" fill-opacity="0.5"/><rect x="103" y="41" width="1" height="1" fill="rgb(175.5,255.0,255.0)" fill-opacity="1"/><rect x="105" y="41" width="23" height="1" fill="rgb(127.5,127.5,127.5)" fill-opacity="0.5"/><rect x="0" y="42" width="23" height="1" fill="rgb(127.5,127.5,127.5)" fill-opacity="0.5"/><rect x="24" y="42" width="1" height="1" fill="rgb(255.0,255.0,223.5)" fill-opacity="1"/><rect x="25" y="42" width="38" height="1" fill="rgb(127.5,127.5,127.5)" fill-opacity="0.5"/><rect x="63" y="42" width="1" height="1" fill="rgb(255.0,223.5,0.0)" fill-opacity="1"/><rect x="65" y="42" width="38" height="1" fill="rgb(127.5,127.5,127.5)" fill-opacity="0.5"/><rect x="103" y="42" width="1" height="1" fill="rgb(175.5,255.0,255.0)" fill-opacity="1"/><rect x="105" y="42" width="23" height="1" fill="rgb(127.5,127.5,127.5)" fill-opacity="0.5"/><rect x="0" y="43" width="23" height="1" fill="rgb(127.5,127.5,127.5)" fill-opacity="0.5"/><rect x="24" y="43" width="1" height="1" fill="rgb(255.0,255.0,223.5)" fill-opacity="1"/><rect x="25" y="43" width="38" height="1" fill="rgb(127.5,127.5,127.5)" fill-opacity="0.5"/><rect x="63" y="43" width="1" height="1" fill="rgb(255.0,223.5,0.0)" fill-opacity="1"/><rect x="65" y="43" width="38" height="1" fill="rgb(127.5,127.5,127.5)" fill-opacity="0.5"/><rect x="103" y="43" width="1" height="1" fill="rgb(175.5,255.0,255.0)" fill-opacity="1"/><rect x="105" y="43" width="23" height="1" fill="rgb(127.5,127.5,127.5)" fill-opacity="0.5"/><rect x="0" y="44" width="23" height="1" fill="rgb(127.5,127.5,127.5)" fill-opacity="0.5"/><rect x="24" y="44" width="1" height="1" fill="rgb(255.0,255.0,223.5)" fill-opacity="1"/><rect x="25" y="44" width="38" height="1" fill="rgb(127.5,127.5,127.5)" fill-opacity="0.5"/><rect x="63" y="44" width="1" height="1" fill="rgb(255.0,223.5,0.0)" fill-opacity="1"/><rect x="65" y="44" width="38" height="1" fill="rgb(127.5,127.5,127.5)" fill-opacity="0.5"/><rect x="103" y="44" width="1" height="1" fill="rgb(175.5,255.0,255.0)" fill-opacity="1"/><rect x="105" y="44" width="23" height="1" fill="rgb(127.5,127.5,127.5)" fill-opacity="0.5"/><rect x="0" y="45" width="23" height="1" fill="rgb(127.5,127.5,127.5)" fill-opacity="0.5"/><rect x="24" y="45" width="1" height="1" fill="rgb(255.0,255.0,223.5)" fill-opacity="1"/><rect x="25" y="45" width="38" height="1" fill="rgb(127.5,127.5,127.5)" fill-opacity="0.5"/><rect x="63" y="45" width="1" height="1" fill="rgb(255.0,223.5,0.0)" fill-opacity="1"/><rect x="65" y="45" width="38" height="1" fill="rgb(127.5,127.5,127.5)" fill-opacity="0.5"/><rect x="103" y="45" width="1" height="1" fill="rgb(175.5,255.0,255.0)" fill-opacity="1"/><rect x="105" y="45" width="23" height="1" fill="rgb(127.5,127.5,127.5)" fill-opacity="0.5"/><rect x="0" y="46" width="23" height="1" fill="rgb(127.5,127.5,127.5)" fill-opacity="0.5"/><rect x="24" y="46" width="1" height="1" fill="rgb(255.0,255.0,223.5)" fill-opacity="1"/><rect x="25" y="46" width="38" height="1" fill="rgb(127.5,127.5,127.5)" fill-opacity="0.5"/><rect x="63" y="46" width="1" height="1" fill="rgb(255.0,223.5,0.0)" fill-opacity="1"/><rect x="65" y="46" width="38" height="1" fill="rgb(127.5,127.5,127.5)" fill-opacity="0.5"/><rect x="103" y="46" width="1" height="1" fill="rgb(175.5,255.0,255.0)" fill-opacity="1"/><rect x="105" y="46" width="23" height="1" fill="rgb(127.5,127.5,127.5)" fill-opacity="0.5"/><rect x="0" y="47" width="23" height="1" fill="rgb(127.5,127.5,127.5)" fill-opacity="0.5"/><rect x="24" y="47" width="1" height="1" fill="rgb(255.0,255.0,223.5)" fill-opacity="1"/><rect x="25" y="47" width="38" height="1" fill="rgb(127.5,127.5,127.5)" fill-opacity="0.5"/><rect x="63" y="47" width="1" height="1" fill="rgb(255.0,223.5,0.0)" fill-opacity="1"/><rect x="65" y="47" width="38" height="1" fill="rgb(127.5,127.5,127.5)" fill-opacity="0.5"/><rect x="103" y="47" width="1" height="1" fill="rgb(175.5,255.0,255.0)" fill-opacity="1"/><rect x="105" y="47" width="23" height="1" fill="rgb(127.5,127.5,127.5)" fill-opacity="0.5"/><rect x="0" y="48" width="23" height="1" fill="rgb(127.5,127.5,127.5)" fill-opacity="0.5"/><rect x="24" y="48" width="1" height="1" fill="rgb(255.0,255.0,223.5)" fill-opacity="1"/><rect x="25" y="48" width="38" height="1" fill="rgb(127.5,127.5,127.5)" fill-opacity="0.5"/><rect x="63" y="48" width="1" height="1" fill="rgb(255.0,223.5,0.0)" fill-opacity="1"/><rect x="65" y="48" width="38" height="1" fill="rgb(127.5,127.5,127.5)" fill-opacity="0.5"/><rect x="103" y="48" width="1" height="1" fill="rgb(175.5,255.0,255.0)" fill-opacity="1"/><rect x="105" y="48" width="23" height="1" fill="rgb(127.5,127.5,127.5)" fill-opacity="0.5"/><rect x="0" y="49" width="23" height="1" fill="rgb(127.5,127.5,127.5)" fill-opacity="0.5"/><rect x="24" y="49" width="1" height="1" fill="rgb(255.0,255.0,223.5)" fill-opacity="1"/><rect x="25" y="49" width="38" height="1" fill="rgb(127.5,127.5,127.5)" fill-opacity="0.5"/><rect x="63" y="49" width="1" height="1" fill="rgb(255.0,223.5,0.0)" fill-opacity="1"/><rect x="65" y="49" width="38" height="1" fill="rgb(127.5,127.5,127.5)" fill-opacity="0.5"/><rect x="103" y="49" width="1" height="1" fill="rgb(175.5,255.0,255.0)" fill-opacity="1"/><rect x="105" y="49" width="23" height="1" fill="rgb(127.5,127.5,127.5)" fill-opacity="0.5"/><rect x="0" y="50" width="23" height="1" fill="rgb(127.5,127.5,127.5)" fill-opacity="0.5"/><rect x="24" y="50" width="1" height="1" fill="rgb(255.0,255.0,223.5)" fill-opacity="1"/><rect x="25" y="50" width="38" height="1" fill="rgb(127.5,127.5,127.5)" fill-opacity="0.5"/><rect x="63" y="50" width="1" height="1" fill="rgb(255.0,223.5,0.0)" fill-opacity="1"/><rect x="65" y="50" width="38" height="1" fill="rgb(127.5,127.5,127.5)" fill-opacity="0.5"/><rect x="103" y="50" width="1" height="1" fill="rgb(175.5,255.0,255.0)" fill-opacity="1"/><rect x="105" y="50" width="23" height="1" fill="rgb(127.5,127.5,127.5)" fill-opacity="0.5"/><rect x="0" y="51" width="23" height="1" fill="rgb(127.5,127.5,127.5)" fill-opacity="0.5"/><rect x="24" y="51" width="1" height="1" fill="rgb(255.0,255.0,223.5)" fill-opacity="1"/><rect x="25" y="51" width="38" height="1" fill="rgb(127.5,127.5,127.5)" fill-opacity="0.5"/><rect x="63" y="51" width="1" height="1" fill="rgb(255.0,223.5,0.0)" fill-opacity="1"/><rect x="65" y="51" width="38" height="1" fill="rgb(127.5,127.5,127.5)" fill-opacity="0.5"/><rect x="103" y="51" width="1" height="1" fill="rgb(175.5,255.0,255.0)" fill-opacity="1"/><rect x="105" y="51" width="23" height="1" fill="rgb(127.5,127.5,127.5)" fill-opacity="0.5"/><rect x="0" y="52" width="23" height="1" fill="rgb(127.5,127.5,127.5)" fill-opacity="0.5"/><rect x="24" y="52" width="1" height="1" fill="rgb(255.0,255.0,223.5)" fill-opacity="1"/><rect x="25" y="52" width="38" height="1" fill="rgb(127.5,127.5,127.5)" fill-opacity="0.5"/><rect x="63" y="52" width="1" height="1" fill="rgb(255.0,223.5,0.0)" fill-opacity="1"/><rect x="65" y="52" width="38" height="1" fill="rgb(127.5,127.5,127.5)" fill-opacity="0.5"/><rect x="103" y="52" width="1" height="1" fill="rgb(175.5,255.0,255.0)" fill-opacity="1"/><rect x="105" y="52" width="23" height="1" fill="rgb(127.5,127.5,127.5)" fill-opacity="0.5"/><rect x="0" y="53" width="23" height="1" fill="rgb(127.5,127.5,127.5)" fill-opacity="0.5"/><rect x="24" y="53" width="1" height="1" fill="rgb(255.0,255.0,223.5)" fill-opacity="1"/><rect x="25" y="53" width="38" height="1" fill="rgb(127.5,127.5,127.5)" fill-opacity="0.5"/><rect x="63" y="53" width="1" height="1" fill="rgb(255.0,223.5,0.0)" fill-opacity="1"/><rect x="65" y="53" width="38" height="1" fill="rgb(127.5,127.5,127.5)" fill-opacity="0.5"/><rect x="103" y="53" width="1" height="1" fill="rgb(175.5,255.0,255.0)" fill-opacity="1"/><rect x="105" y="53" width="23" height="1" fill="rgb(127.5,127.5,127.5)" fill-opacity="0.5"/><rect x="0" y="54" width="23" height="1" fill="rgb(127.5,127.5,127.5)" fill-opacity="0.5"/><rect x="24" y="54" width="1" height="1" fill="rgb(255.0,255.0,223.5)" fill-opacity="1"/><rect x="25" y="54" width="38" height="1" fill="rgb(127.5,127.5,127.5)" fill-opacity="0.5"/><rect x="63" y="54" width="1" height="1" fill="rgb(255.0,223.5,0.0)" fill-opacity="1"/><rect x="65" y="54" width="38" height="1" fill="rgb(127.5,127.5,127.5)" fill-opacity="0.5"/><rect x="103" y="54" width="1" height="1" fill="rgb(175.5,255.0,255.0)" fill-opacity="1"/><rect x="105" y="54" width="23" height="1" fill="rgb(127.5,127.5,127.5)" fill-opacity="0.5"/><rect x="0" y="55" width="23" height="1" fill="rgb(127.5,127.5,127.5)" fill-opacity="0.5"/><rect x="24" y="55" width="1" height="1" fill="rgb(255.0,255.0,223.5)" fill-opacity="1"/><rect x="25" y="55" width="38" height="1" fill="rgb(127.5,127.5,127.5)" fill-opacity="0.5"/><rect x="63" y="55" width="1" height="1" fill="rgb(255.0,223.5,0.0)" fill-opacity="1"/><rect x="65" y="55" width="38" height="1" fill="rgb(127.5,127.5,127.5)" fill-opacity="0.5"/><rect x="103" y="55" width="1" height="1" fill="rgb(175.5,255.0,255.0)" fill-opacity="1"/><rect x="105" y="55" width="23" height="1" fill="rgb(127.5,127.5,127.5)" fill-opacity="0.5"/><rect x="0" y="56" width="23" height="1" fill="rgb(127.5,127.5,127.5)" fill-opacity="0.5"/><rect x="24" y="56" width="1" height="1" fill="rgb(255.0,255.0,223.5)" fill-opacity="1"/><rect x="25" y="56" width="38" height="1" fill="rgb(127.5,127.5,127.5)" fill-opacity="0.5"/><rect x="63" y="56" width="1" height="1" fill="rgb(255.0,223.5,0.0)" fill-opacity="1"/><rect x="65" y="56" width="38" height="1" fill="rgb(127.5,127.5,127.5)" fill-opacity="0.5"/><rect x="103" y="56" width="1" height="1" fill="rgb(175.5,255.0,255.0)" fill-opacity="1"/><rect x="105" y="56" width="23" height="1" fill="rgb(127.5,127.5,127.5)" fill-opacity="0.5"/><rect x="0" y="57" width="23" height="1" fill="rgb(127.5,127.5,127.5)" fill-opacity="0.5"/><rect x="24" y="57" width="1" height="1" fill="rgb(255.0,255.0,223.5)" fill-opacity="1"/><rect x="25" y="57" width="38" height="1" fill="rgb(127.5,127.5,127.5)" fill-opacity="0.5"/><rect x="63" y="57" width="1" height="1" fill="rgb(255.0,223.5,0.0)" fill-opacity="1"/><rect x="65" y="57" width="38" height="1" fill="rgb(127.5,127.5,127.5)" fill-opacity="0.5"/><rect x="103" y="57" width="1" height="1" fill="rgb(175.5,255.0,255.0)" fill-opacity="1"/><rect x="105" y="57" width="23" height="1" fill="rgb(127.5,127.5,127.5)" fill-opacity="0.5"/><rect x="0" y="58" width="23" height="1" fill="rgb(127.5,127.5,127.5)" fill-opacity="0.5"/><rect x="24" y="58" width="1" height="1" fill="rgb(255.0,255.0,223.5)" fill-opacity="1"/><rect x="25" y="58" width="38" height="1" fill="rgb(127.5,127.5,127.5)" fill-opacity="0.5"/><rect x="63" y="58" width="1" height="1" fill="rgb(255.0,223.5,0.0)" fill-opacity="1"/><rect x="65" y="58" width="38" height="1" fill="rgb(127.5,127.5,127.5)" fill-opacity="0.5"/><rect x="103" y="58" width="1" height="1" fill="rgb(175.5,255.0,255.0)" fill-opacity="1"/><rect x="105" y="58" width="23" height="1" fill="rgb(127.5,127.5,127.5)" fill-opacity="0.5"/><rect x="0" y="59" width="23" height="1" fill="rgb(127.5,127.5,127.5)" fill-opacity="0.5"/><rect x="24" y="59" width="1" height="1" fill="rgb(255.0,255.0,223.5)" fill-opacity="1"/><rect x="25" y="59" width="38" height="1" fill="rgb(127.5,127.5,127.5)" fill-opacity="0.5"/><rect x="63" y="59" width="1" height="1" fill="rgb(255.0,223.5,0.0)" fill-opacity="1"/><rect x="65" y="59" width="38" height="1" fill="rgb(127.5,127.5,127.5)" fill-opacity="0.5"/><rect x="103" y="59" width="1" height="1" fill="rgb(175.5,255.0,255.0)" fill-opacity="1"/><rect x="105" y="59" width="23" height="1" fill="rgb(127.5,127.5,127.5)" fill-opacity="0.5"/><rect x="0" y="60" width="23" height="1" fill="rgb(127.5,127.5,127.5)" fill-opacity="0.5"/><rect x="24" y="60" width="1" height="1" fill="rgb(255.0,255.0,223.5)" fill-opacity="1"/><rect x="25" y="60" width="38" height="1" fill="rgb(127.5,127.5,127.5)" fill-opacity="0.5"/><rect x="63" y="60" width="1" height="1" fill="rgb(255.0,223.5,0.0)" fill-opacity="1"/><rect x="65" y="60" width="38" height="1" fill="rgb(127.5,127.5,127.5)" fill-opacity="0.5"/><rect x="103" y="60" width="1" height="1" fill="rgb(175.5,255.0,255.0)" fill-opacity="1"/><rect x="105" y="60" width="23" height="1" fill="rgb(127.5,127.5,127.5)" fill-opacity="0.5"/><rect x="0" y="61" width="23" height="1" fill="rgb(127.5,127.5,127.5)" fill-opacity="0.5"/><rect x="24" y="61" width="1" height="1" fill="rgb(255.0,255.0,223.5)" fill-opacity="1"/><rect x="25" y="61" width="38" height="1" fill="rgb(127.5,127.5,127.5)" fill-opacity="0.5"/><rect x="63" y="61" width="1" height="1" fill="rgb(255.0,223.5,0.0)" fill-opacity="1"/><rect x="65" y="61" width="38" height="1" fill="rgb(127.5,127.5,127.5)" fill-opacity="0.5"/><rect x="103" y="61" width="1" height="1" fill="rgb(175.5,255.0,255.0)" fill-opacity="1"/><rect x="105" y="61" width="23" height="1" fill="rgb(127.5,127.5,127.5)" fill-opacity="0.5"/><rect x="0" y="62" width="23" height="1" fill="rgb(127.5,127.5,127.5)" fill-opacity="0.5"/><rect x="24" y="62" width="1" height="1" fill="rgb(255.0,255.0,223.5)" fill-opacity="1"/><rect x="25" y="62" width="38" height="1" fill="rgb(127.5,127.5,127.5)" fill-opacity="0.5"/><rect x="63" y="62" width="1" height="1" fill="rgb(255.0,223.5,0.0)" fill-opacity="1"/><rect x="65" y="62" width="38" height="1" fill="rgb(127.5,127.5,127.5)" fill-opacity="0.5"/><rect x="103" y="62" width="1" height="1" fill="rgb(175.5,255.0,255.0)" fill-opacity="1"/><rect x="105" y="62" width="23" height="1" fill="rgb(127.5,127.5,127.5)" fill-opacity="0.5"/><rect x="0" y="63" width="23" height="1" fill="rgb(127.5,127.5,127.5)" fill-opacity="0.5"/><rect x="24" y="63" width="1" height="1" fill="rgb(255.0,255.0,223.5)" fill-opacity="1"/><rect x="25" y="63" width="38" height="1" fill="rgb(127.5,127.5,127.5)" fill-opacity="0.5"/><rect x="63" y="63" width="1" height="1" fill="rgb(255.0,223.5,0.0)" fill-opacity="1"/><rect x="65" y="63" width="38" height="1" fill="rgb(127.5,127.5,127.5)" fill-opacity="0.5"/><rect x="103" y="63" width="1" height="1" fill="rgb(175.5,255.0,255.0)" fill-opacity="1"/><rect x="105" y="63" width="23" height="1" fill="rgb(127.5,127.5,127.5)" fill-opacity="0.5"/><rect x="0" y="64" width="23" height="1" fill="rgb(127.5,127.5,127.5)" fill-opacity="0.5"/><rect x="24" y="64" width="1" height="1" fill="rgb(255.0,255.0,223.5)" fill-opacity="1"/><rect x="25" y="64" width="38" height="1" fill="rgb(127.5,127.5,127.5)" fill-opacity="0.5"/><rect x="63" y="64" width="1" height="1" fill="rgb(255.0,223.5,0.0)" fill-opacity="1"/><rect x="65" y="64" width="38" height="1" fill="rgb(127.5,127.5,127.5)" fill-opacity="0.5"/><rect x="103" y="64" width="1" height="1" fill="rgb(175.5,255.0,255.0)" fill-opacity="1"/><rect x="105" y="64" width="23" height="1" fill="rgb(127.5,127.5,127.5)" fill-opacity="0.5"/><rect x="0" y="65" width="23" height="1" fill="rgb(127.5,127.5,127.5)" fill-opacity="0.5"/><rect x="24" y="65" width="1" height="1" fill="rgb(255.0,255.0,223.5)" fill-opacity="1"/><rect x="25" y="65" width="38" height="1" fill="rgb(127.5,127.5,127.5)" fill-opacity="0.5"/><rect x="63" y="65" width="1" height="1" fill="rgb(255.0,223.5,0.0)" fill-opacity="1"/><rect x="65" y="65" width="38" height="1" fill="rgb(127.5,127.5,127.5)" fill-opacity="0.5"/><rect x="103" y="65" width="1" height="1" fill="rgb(175.5,255.0,255.0)" fill-opacity="1"/><rect x="105" y="65" width="23" height="1" fill="rgb(127.5,127.5,127.5)" fill-opacity="0.5"/><rect x="0" y="66" width="23" height="1" fill="rgb(127.5,127.5,127.5)" fill-opacity="0.5"/><rect x="24" y="66" width="1" height="1" fill="rgb(255.0,255.0,223.5)" fill-opacity="1"/><rect x="25" y="66" width="38" height="1" fill="rgb(127.5,127.5,127.5)" fill-opacity="0.5"/><rect x="63" y="66" width="1" height="1" fill="rgb(255.0,223.5,0.0)" fill-opacity="1"/><rect x="65" y="66" width="38" height="1" fill="rgb(127.5,127.5,127.5)" fill-opacity="0.5"/><rect x="103" y="66" width="1" height="1" fill="rgb(175.5,255.0,255.0)" fill-opacity="1"/><rect x="105" y="66" width="23" height="1" fill="rgb(127.5,127.5,127.5)" fill-opacity="0.5"/><rect x="0" y="67" width="23" height="1" fill="rgb(127.5,127.5,127.5)" fill-opacity="0.5"/><rect x="24" y="67" width="1" height="1" fill="rgb(255.0,255.0,223.5)" fill-opacity="1"/><rect x="25" y="67" width="38" height="1" fill="rgb(127.5,127.5,127.5)" fill-opacity="0.5"/><rect x="63" y="67" width="1" height="1" fill="rgb(255.0,223.5,0.0)" fill-opacity="1"/><rect x="65" y="67" width="38" height="1" fill="rgb(127.5,127.5,127.5)" fill-opacity="0.5"/><rect x="103" y="67" width="1" height="1" fill="rgb(175.5,255.0,255.0)" fill-opacity="1"/><rect x="105" y="67" width="23" height="1" fill="rgb(127.5,127.5,127.5)" fill-opacity="0.5"/><rect x="0" y="68" width="23" height="1" fill="rgb(127.5,127.5,127.5)" fill-opacity="0.5"/><rect x="24" y="68" width="1" height="1" fill="rgb(255.0,255.0,223.5)" fill-opacity="1"/><rect x="25" y="68" width="38" height="1" fill="rgb(127.5,127.5,127.5)" fill-opacity="0.5"/><rect x="63" y="68" width="1" height="1" fill="rgb(255.0,223.5,0.0)" fill-opacity="1"/><rect x="65" y="68" width="38" height="1" fill="rgb(127.5,127.5,127.5)" fill-opacity="0.5"/><rect x="103" y="68" width="1" height="1" fill="rgb(175.5,255.0,255.0)" fill-opacity="1"/><rect x="105" y="68" width="23" height="1" fill="rgb(127.5,127.5,127.5)" fill-opacity="0.5"/><rect x="0" y="69" width="23" height="1" fill="rgb(127.5,127.5,127.5)" fill-opacity="0.5"/><rect x="24" y="69" width="1" height="1" fill="rgb(255.0,255.0,223.5)" fill-opacity="1"/><rect x="25" y="69" width="38" height="1" fill="rgb(127.5,127.5,127.5)" fill-opacity="0.5"/><rect x="63" y="69" width="1" height="1" fill="rgb(255.0,223.5,0.0)" fill-opacity="1"/><rect x="65" y="69" width="38" height="1" fill="rgb(127.5,127.5,127.5)" fill-opacity="0.5"/><rect x="103" y="69" width="1" height="1" fill="rgb(175.5,255.0,255.0)" fill-opacity="1"/><rect x="105" y="69" width="23" height="1" fill="rgb(127.5,127.5,127.5)" fill-opacity="0.5"/><rect x="0" y="70" width="23" height="1" fill="rgb(127.5,127.5,127.5)" fill-opacity="0.5"/><rect x="24" y="70" width="1" height="1" fill="rgb(255.0,255.0,223.5)" fill-opacity="1"/><rect x="25" y="70" width="38" height="1" fill="rgb(127.5,127.5,127.5)" fill-opacity="0.5"/><rect x="63" y="70" width="1" height="1" fill="rgb(255.0,223.5,0.0)" fill-opacity="1"/><rect x="65" y="70" width="38" height="1" fill="rgb(127.5,127.5,127.5)" fill-opacity="0.5"/><rect x="103" y="70" width="1" height="1" fill="rgb(175.5,255.0,255.0)" fill-opacity="1"/><rect x="105" y="70" width="23" height="1" fill="rgb(127.5,127.5,127.5)" fill-opacity="0.5"/><rect x="0" y="71" width="23" height="1" fill="rgb(127.5,127.5,127.5)" fill-opacity="0.5"/><rect x="24" y="71" width="1" height="1" fill="rgb(255.0,255.0,223.5)" fill-opacity="1"/><rect x="25" y="71" width="38" height="1" fill="rgb(127.5,127.5,127.5)" fill-opacity="0.5"/><rect x="63" y="71" width="1" height="1" fill="rgb(255.0,223.5,0.0)" fill-opacity="1"/><rect x="65" y="71" width="38" height="1" fill="rgb(127.5,127.5,127.5)" fill-opacity="0.5"/><rect x="103" y="71" width="1" height="1" fill="rgb(175.5,255.0,255.0)" fill-opacity="1"/><rect x="105" y="71" width="23" height="1" fill="rgb(127.5,127.5,127.5)" fill-opacity="0.5"/><rect x="0" y="72" width="23" height="1" fill="rgb(127.5,127.5,127.5)" fill-opacity="0.5"/><rect x="24" y="72" width="1" height="1" fill="rgb(255.0,255.0,223.5)" fill-opacity="1"/><rect x="25" y="72" width="38" height="1" fill="rgb(127.5,127.5,127.5)" fill-opacity="0.5"/><rect x="63" y="72" width="1" height="1" fill="rgb(255.0,223.5,0.0)" fill-opacity="1"/><rect x="65" y="72" width="38" height="1" fill="rgb(127.5,127.5,127.5)" fill-opacity="0.5"/><rect x="103" y="72" width="1" height="1" fill="rgb(175.5,255.0,255.0)" fill-opacity="1"/><rect x="105" y="72" width="23" height="1" fill="rgb(127.5,127.5,127.5)" fill-opacity="0.5"/><rect x="0" y="73" width="23" height="1" fill="rgb(127.5,127.5,127.5)" fill-opacity="0.5"/><rect x="24" y="73" width="1" height="1" fill="rgb(255.0,255.0,223.5)" fill-opacity="1"/><rect x="25" y="73" width="38" height="1" fill="rgb(127.5,127.5,127.5)" fill-opacity="0.5"/><rect x="63" y="73" width="1" height="1" fill="rgb(255.0,223.5,0.0)" fill-opacity="1"/><rect x="65" y="73" width="38" height="1" fill="rgb(127.5,127.5,127.5)" fill-opacity="0.5"/><rect x="103" y="73" width="1" height="1" fill="rgb(175.5,255.0,255.0)" fill-opacity="1"/><rect x="105" y="73" width="23" height="1" fill="rgb(127.5,127.5,127.5)" fill-opacity="0.5"/><rect x="0" y="74" width="23" height="1" fill="rgb(127.5,127.5,127.5)" fill-opacity="0.5"/><rect x="24" y="74" width="1" height="1" fill="rgb(255.0,255.0,223.5)" fill-opacity="1"/><rect x="25" y="74" width="38" height="1" fill="rgb(127.5,127.5,127.5)" fill-opacity="0.5"/><rect x="63" y="74" width="1" height="1" fill="rgb(255.0,223.5,0.0)" fill-opacity="1"/><rect x="65" y="74" width="38" height="1" fill="rgb(127.5,127.5,127.5)" fill-opacity="0.5"/><rect x="103" y="74" width="1" height="1" fill="rgb(175.5,255.0,255.0)" fill-opacity="1"/><rect x="105" y="74" width="23" height="1" fill="rgb(127.5,127.5,127.5)" fill-opacity="0.5"/><rect x="0" y="75" width="23" height="1" fill="rgb(127.5,127.5,127.5)" fill-opacity="0.5"/><rect x="24" y="75" width="1" height="1" fill="rgb(255.0,255.0,223.5)" fill-opacity="1"/><rect x="25" y="75" width="38" height="1" fill="rgb(127.5,127.5,127.5)" fill-opacity="0.5"/><rect x="63" y="75" width="1" height="1" fill="rgb(255.0,223.5,0.0)" fill-opacity="1"/><rect x="65" y="75" width="38" height="1" fill="rgb(127.5,127.5,127.5)" fill-opacity="0.5"/><rect x="103" y="75" width="1" height="1" fill="rgb(175.5,255.0,255.0)" fill-opacity="1"/><rect x="105" y="75" width="23" height="1" fill="rgb(127.5,127.5,127.5)" fill-opacity="0.5"/><rect x="0" y="76" width="23" height="1" fill="rgb(127.5,127.5,127.5)" fill-opacity="0.5"/><rect x="24" y="76" width="1" height="1" fill="rgb(255.0,255.0,223.5)" fill-opacity="1"/><rect x="25" y="76" width="38" height="1" fill="rgb(127.5,127.5,127.5)" fill-opacity="0.5"/><rect x="63" y="76" width="1" height="1" fill="rgb(255.0,223.5,0.0)" fill-opacity="1"/><rect x="65" y="76" width="38" height="1" fill="rgb(127.5,127.5,127.5)" fill-opacity="0.5"/><rect x="103" y="76" width="1" height="1" fill="rgb(175.5,255.0,255.0)" fill-opacity="1"/><rect x="105" y="76" width="23" height="1" fill="rgb(127.5,127.5,127.5)" fill-opacity="0.5"/><rect x="0" y="77" width="23" height="1" fill="rgb(127.5,127.5,127.5)" fill-opacity="0.5"/><rect x="24" y="77" width="1" height="1" fill="rgb(255.0,255.0,223.5)" fill-opacity="1"/><rect x="25" y="77" width="38" height="1" fill="rgb(127.5,127.5,127.5)" fill-opacity="0.5"/><rect x="63" y="77" width="1" height="1" fill="rgb(255.0,223.5,0.0)" fill-opacity="1"/><rect x="65" y="77" width="38" height="1" fill="rgb(127.5,127.5,127.5)" fill-opacity="0.5"/><rect x="103" y="77" width="1" height="1" fill="rgb(175.5,255.0,255.0)" fill-opacity="1"/><rect x="105" y="77" width="23" height="1" fill="rgb(127.5,127.5,127.5)" fill-opacity="0.5"/><rect x="0" y="78" width="23" height="1" fill="rgb(127.5,127.5,127.5)" fill-opacity="0.5"/><rect x="24" y="78" width="1" height="1" fill="rgb(255.0,255.0,223.5)" fill-opacity="1"/><rect x="25" y="78" width="38" height="1" fill="rgb(127.5,127.5,127.5)" fill-opacity="0.5"/><rect x="63" y="78" width="1" height="1" fill="rgb(255.0,223.5,0.0)" fill-opacity="1"/><rect x="65" y="78" width="38" height="1" fill="rgb(127.5,127.5,127.5)" fill-opacity="0.5"/><rect x="103" y="78" width="1" height="1" fill="rgb(175.5,255.0,255.0)" fill-opacity="1"/><rect x="105" y="78" width="23" height="1" fill="rgb(127.5,127.5,127.5)" fill-opacity="0.5"/><rect x="0" y="79" width="23" height="1" fill="rgb(127.5,127.5,127.5)" fill-opacity="0.5"/><rect x="24" y="79" width="1" height="1" fill="rgb(255.0,255.0,223.5)" fill-opacity="1"/><rect x="25" y="79" width="38" height="1" fill="rgb(127.5,127.5,127.5)" fill-opacity="0.5"/><rect x="63" y="79" width="1" height="1" fill="rgb(255.0,223.5,0.0)" fill-opacity="1"/><rect x="65" y="79" width="38" height="1" fill="rgb(127.5,127.5,127.5)" fill-opacity="0.5"/><rect x="103" y="79" width="1" height="1" fill="rgb(175.5,255.0,255.0)" fill-opacity="1"/><rect x="105" y="79" width="23" height="1" fill="rgb(127.5,127.5,127.5)" fill-opacity="0.5"/><rect x="0" y="80" width="23" height="1" fill="rgb(127.5,127.5,127.5)" fill-opacity="0.5"/><rect x="24" y="80" width="1" height="1" fill="rgb(255.0,255.0,223.5)" fill-opacity="1"/><rect x="25" y="80" width="38" height="1" fill="rgb(127.5,127.5,127.5)" fill-opacity="0.5"/><rect x="63" y="80" width="1" height="1" fill="rgb(255.0,223.5,0.0)" fill-opacity="1"/><rect x="65" y="80" width="38" height="1" fill="rgb(127.5,127.5,127.5)" fill-opacity="0.5"/><rect x="103" y="80" width="1" height="1" fill="rgb(175.5,255.0,255.0)" fill-opacity="1"/><rect x="105" y="80" width="23" height="1" fill="rgb(127.5,127.5,127.5)" fill-opacity="0.5"/><rect x="0" y="81" width="23" height="1" fill="rgb(127.5,127.5,127.5)" fill-opacity="0.5"/><rect x="24" y="81" width="1" height="1" fill="rgb(255.0,255.0,223.5)" fill-opacity="1"/><rect x="25" y="81" width="38" height="1" fill="rgb(127.5,127.5,127.5)" fill-opacity="0.5"/><rect x="63" y="81" width="1" height="1" fill="rgb(255.0,223.5,0.0)" fill-opacity="1"/><rect x="65" y="81" width="38" height="1" fill="rgb(127.5,127.5,127.5)" fill-opacity="0.5"/><rect x="103" y="81" width="1" height="1" fill="rgb(175.5,255.0,255.0)" fill-opacity="1"/><rect x="105" y="81" width="23" height="1" fill="rgb(127.5,127.5,127.5)" fill-opacity="0.5"/><rect x="0" y="82" width="23" height="1" fill="rgb(127.5,127.5,127.5)" fill-opacity="0.5"/><rect x="24" y="82" width="1" height="1" fill="rgb(255.0,255.0,223.5)" fill-opacity="1"/><rect x="25" y="82" width="38" height="1" fill="rgb(127.5,127.5,127.5)" fill-opacity="0.5"/><rect x="63" y="82" width="1" height="1" fill="rgb(255.0,223.5,0.0)" fill-opacity="1"/><rect x="65" y="82" width="38" height="1" fill="rgb(127.5,127.5,127.5)" fill-opacity="0.5"/><rect x="103" y="82" width="1" height="1" fill="rgb(175.5,255.0,255.0)" fill-opacity="1"/><rect x="105" y="82" width="23" height="1" fill="rgb(127.5,127.5,127.5)" fill-opacity="0.5"/><rect x="0" y="83" width="23" height="1" fill="rgb(127.5,127.5,127.5)" fill-opacity="0.5"/><rect x="24" y="83" width="1" height="1" fill="rgb(255.0,255.0,223.5)" fill-opacity="1"/><rect x="25" y="83" width="38" height="1" fill="rgb(127.5,127.5,127.5)" fill-opacity="0.5"/><rect x="63" y="83" width="1" height="1" fill="rgb(255.0,223.5,0.0)" fill-opacity="1"/><rect x="65" y="83" width="38" height="1" fill="rgb(127.5,127.5,127.5)" fill-opacity="0.5"/><rect x="103" y="83" width="1" height="1" fill="rgb(175.5,255.0,255.0)" fill-opacity="1"/><rect x="105" y="83" width="23" height="1" fill="rgb(127.5,127.5,127.5)" fill-opacity="0.5"/><rect x="0" y="84" width="23" height="1" fill="rgb(127.5,127.5,127.5)" fill-opacity="0.5"/><rect x="24" y="84" width="1" height="1" fill="rgb(255.0,255.0,223.5)" fill-opacity="1"/><rect x="25" y="84" width="38" height="1" fill="rgb(127.5,127.5,127.5)" fill-opacity="0.5"/><rect x="63" y="84" width="1" height="1" fill="rgb(255.0,223.5,0.0)" fill-opacity="1"/><rect x="65" y="84" width="38" height="1" fill="rgb(127.5,127.5,127.5)" fill-opacity="0.5"/><rect x="103" y="84" width="1" height="1" fill="rgb(175.5,255.0,255.0)" fill-opacity="1"/><rect x="105" y="84" width="23" height="1" fill="rgb(127.5,127.5,127.5)" fill-opacity="0.5"/><rect x="0" y="85" width="23" height="1" fill="rgb(127.5,127.5,127.5)" fill-opacity="0.5"/><rect x="24" y="85" width="1" height="1" fill="rgb(255.0,255.0,223.5)" fill-opacity="1"/><rect x="25" y="85" width="38" height="1" fill="rgb(127.5,127.5,127.5)" fill-opacity="0.5"/><rect x="63" y="85" width="1" height="1" fill="rgb(255.0,223.5,0.0)" fill-opacity="1"/><rect x="65" y="85" width="38" height="1" fill="rgb(127.5,127.5,127.5)" fill-opacity="0.5"/><rect x="103" y="85" width="1" height="1" fill="rgb(175.5,255.0,255.0)" fill-opacity="1"/><rect x="105" y="85" width="23" height="1" fill="rgb(127.5,127.5,127.5)" fill-opacity="0.5"/><rect x="0" y="86" width="23" height="1" fill="rgb(127.5,127.5,127.5)" fill-opacity="0.5"/><rect x="24" y="86" width="1" height="1" fill="rgb(255.0,255.0,223.5)" fill-opacity="1"/><rect x="25" y="86" width="38" height="1" fill="rgb(127.5,127.5,127.5)" fill-opacity="0.5"/><rect x="63" y="86" width="1" height="1" fill="rgb(255.0,223.5,0.0)" fill-opacity="1"/><rect x="65" y="86" width="38" height="1" fill="rgb(127.5,127.5,127.5)" fill-opacity="0.5"/><rect x="103" y="86" width="1" height="1" fill="rgb(175.5,255.0,255.0)" fill-opacity="1"/><rect x="105" y="86" width="23" height="1" fill="rgb(127.5,127.5,127.5)" fill-opacity="0.5"/><rect x="0" y="87" width="23" height="1" fill="rgb(127.5,127.5,127.5)" fill-opacity="0.5"/><rect x="24" y="87" width="1" height="1" fill="rgb(255.0,255.0,255.0)" fill-opacity="1"/><rect x="25" y="87" width="38" height="1" fill="rgb(255.0,255.0,223.5)" fill-opacity="1"/><rect x="63" y="87" width="1" height="1" fill="rgb(255.0,255.0,0.0)" fill-opacity="1"/><rect x="64" y="87" width="1" height="1" fill="rgb(0.0,127.5,255.0)" fill-opacity="0.0058824"/><rect x="65" y="87" width="38" height="1" fill="rgb(127.5,127.5,127.5)" fill-opacity="0.5"/><rect x="103" y="87" width="1" height="1" fill="rgb(175.5,255.0,255.0)" fill-opacity="1"/><rect x="105" y="87" width="23" height="1" fill="rgb(127.5,127.5,127.5)" fill-opacity="0.5"/><rect x="0" y="88" width="23" height="1" fill="rgb(127.5,127.5,127.5)" fill-opacity="0.5"/><rect x="64" y="88" width="1" height="1" fill="rgb(0.0,223.5,255.0)" fill-opacity="1"/><rect x="65" y="88" width="38" height="1" fill="rgb(127.5,127.5,127.5)" fill-opacity="0.5"/><rect x="103" y="88" width="1" height="1" fill="rgb(175.5,255.0,255.0)" fill-opacity="1"/><rect x="105" y="88" width="23" height="1" fill="rgb(127.5,127.5,127.5)" fill-opacity="0.5"/><rect x="0" y="89" width="63" height="1" fill="rgb(127.5,127.5,127.5)" fill-opacity="0.5"/><rect x="64" y="89" width="1" height="1" fill="rgb(175.5,255.0,255.0)" fill-opacity="1"/><rect x="65" y="89" width="38" height="1" fill="rgb(127.5,127.5,127.5)" fill-opacity="0.5"/><rect x="103" y="89" width="1" height="1" fill="rgb(175.5,255.0,255.0)" fill-opacity="1"/><rect x="105" y="89" width="23" height="1" fill="rgb(127.5,127.5,127.5)" fill-opacity="0.5"/><rect x="0" y="90" width="63" height="1" fill="rgb(127.5,127.5,127.5)" fill-opacity="0.5"/><rect x="64" y="90" width="1" height="1" fill="rgb(175.5,255.0,255.0)" fill-opacity="1"/><rect x="65" y="90" width="38" height="1" fill="rgb(127.5,127.5,127.5)" fill-opacity="0.5"/><rect x="103" y="90" width="1" height="1" fill="rgb(175.5,255.0,255.0)" fill-opacity="1"/><rect x="105" y="90" width="23" height="1" fill="rgb(127.5,127.5,127.5)" fill-opacity="0.5"/><rect x="0" y="91" width="63" height="1" fill="rgb(127.5,127.5,127.5)" fill-opacity="0.5"/><rect x="64" y="91" width="1" height="1" fill="rgb(175.5,255.0,255.0)" fill-opacity="1"/><rect x="65" y="91" width="38" height="1" fill="rgb(127.5,127.5,127.5)" fill-opacity="0.5"/><rect x="103" y="91" width="1" height="1" fill="rgb(175.5,255.0,255.0)" fill-opacity="1"/><rect x="105" y="91" width="23" height="1" fill="rgb(127.5,127.5,127.5)" fill-opacity="0.5"/><rect x="0" y="92" width="63" height="1" fill="rgb(127.5,127.5,127.5)" fill-opacity="0.5"/><rect x="64" y="92" width="1" height="1" fill="rgb(175.5,255.0,255.0)" fill-opacity="1"/><rect x="65" y="92" width="38" height="1" fill="rgb(127.5,127.5,127.5)" fill-opacity="0.5"/><rect x="103" y="92" width="1" height="1" fill="rgb(175.5,255.0,255.0)" fill-opacity="1"/><rect x="105" y="92" width="23" height="1" fill="rgb(127.5,127.5,127.5)" fill-opacity="0.5"/><rect x="0" y="93" width="63" height="1" fill="rgb(127.5,127.5,127.5)" fill-opacity="0.5"/><rect x="64" y="93" width="1" height="1" fill="rgb(175.5,255.0,255.0)" fill-opacity="1"/><rect x="65" y="93" width="38" height="1" fill="rgb(127.5,127.5,127.5)" fill-opacity="0.5"/><rect x="103" y="93" width="1" height="1" fill="rgb(175.5,255.0,255.0)" fill-opacity="1"/><rect x="105" y="93" width="23" height="1" fill="rgb(127.5,127.5,127.5)" fill-opacity="0.5"/><rect x="0" y="94" width="63" height="1" fill="rgb(127.5,127.5,127.5)" fill-opacity="0.5"/><rect x="64" y="94" width="1" height="1" fill="rgb(175.5,255.0,255.0)" fill-opacity="1"/><rect x="65" y="94" width="38" height="1" fill="rgb(127.5,127.5,127.5)" fill-opacity="0.5"/><rect x="103" y="94" width="1" height="1" fill="rgb(175.5,255.0,255.0)" fill-opacity="1"/><rect x="105" y="94" width="23" height="1" fill="rgb(127.5,127.5,127.5)" fill-opacity="0.5"/><rect x="0" y="95" width="63" height="1" fill="rgb(127.5,127.5,127.5)" fill-opacity="0.5"/><rect x="64" y="95" width="1" height="1" fill="rgb(175.5,255.0,255.0)" fill-opacity="1"/><rect x="65" y="95" width="38" height="1" fill="rgb(127.5,127.5,127.5)" fill-opacity="0.5"/><rect x="103" y="95" width="1" height="1" fill="rgb(175.5,255.0,255.0)" fill-opacity="1"/><rect x="105" y="95" width="23" height="1" fill="rgb(127.5,127.5,127.5)" fill-opacity="0.5"/><rect x="0" y="96" width="63" height="1" fill="rgb(127.5,127.5,127.5)" fill-opacity="0.5"/><rect x="64" y="96" width="1" height="1" fill="rgb(175.5,255.0,255.0)" fill-opacity="1"/><rect x="65" y="96" width="38" height="1" fill="rgb(127.5,127.5,127.5)" fill-opacity="0.5"/><rect x="103" y="96" width="1" height="1" fill="rgb(175.5,255.0,255.0)" fill-opacity="1"/><rect x="105" y="96" width="23" height="1" fill="rgb(127.5,127.5,127.5)" fill-opacity="0.5"/><rect x="0" y="97" width="63" height="1" fill="rgb(127.5,127.5,127.5)" fill-opacity="0.5"/><rect x="64" y="97" width="1" height="1" fill="rgb(175.5,255.0,255.0)" fill-opacity="1"/><rect x="65" y="97" width="38" height="1" fill="rgb(127.5,127.5,127.5)" fill-opacity="0.5"/><rect x="103" y="97" width="1" height="1" fill="rgb(175.5,255.0,255.0)" fill-opacity="1"/><rect x="105" y="97" width="23" height="1" fill="rgb(127.5,127.5,127.5)" fill-opacity="0.5"/><rect x="0" y="98" width="63" height="1" fill="rgb(127.5,127.5,127.5)" fill-opacity="0.5"/><rect x="64" y="98" width="1" height="1" fill="rgb(175.5,255.0,255.0)" fill-opacity="1"/><rect x="65" y="98" width="38" height="1" fill="rgb(127.5,127.5,127.5)" fill-opacity="0.5"/><rect x="103" y="98" width="1" height="1" fill="rgb(175.5,255.0,255.0)" fill-opacity="1"/><rect x="105" y="98" width="23" height="1" fill="rgb(127.5,127.5,127.5)" fill-opacity="0.5"/><rect x="0" y="99" width="63" height="1" fill="rgb(127.5,127.5,127.5)" fill-opacity="0.5"/><rect x="64" y="99" width="1" height="1" fill="rgb(175.5,255.0,255.0)" fill-opacity="1"/><rect x="65" y="99" width="38" height="1" fill="rgb(127.5,127.5,127.5)" fill-opacity="0.5"/><rect x="103" y="99" width="1" height="1" fill="rgb(175.5,255.0,255.0)" fill-opacity="1"/><rect x="105" y="99" width="23" height="1" fill="rgb(127.5,127.5,127.5)" fill-opacity="0.5"/><rect x="0" y="100" width="63" height="1" fill="rgb(127.5,127.5,127.5)" fill-opacity="0.5"/><rect x="64" y="100" width="1" height="1" fill="rgb(175.5,255.0,255.0)" fill-opacity="1"/><rect x="65" y="100" width="38" height="1" fill="rgb(127.5,127.5,127.5)" fill-opacity="0.5"/><rect x="103" y="100" width="1" height="1" fill="rgb(175.5,255.0,255.0)" fill-opacity="1"/><rect x="105" y="100" width="23" height="1" fill="rgb(127.5,127.5,127.5)" fill-opacity="0.5"/><rect x="0" y="101" width="63" height="1" fill="rgb(127.5,127.5,127.5)" fill-opacity="0.5"/><rect x="64" y="101" width="1" height="1" fill="rgb(175.5,255.0,255.0)" fill-opacity="1"/><rect x="65" y="101" width="38" height="1" fill="rgb(127.5,127.5,127.5)" fill-opacity="0.5"/><rect x="103" y="101" width="1" height="1" fill="rgb(175.5,255.0,255.0)" fill-opacity="1"/><rect x="105" y="101" width="23" height="1" fill="rgb(127.5,127.5,127.5)" fill-opacity="0.5"/><rect x="0" y="102" width="63" height="1" fill="rgb(127.5,127.5,127.5)" fill-opacity="0.5"/><rect x="64" y="102" width="1" height="1" fill="rgb(175.5,255.0,255.0)" fill-opacity="1"/><rect x="65" y="102" width="38" height="1" fill="rgb(127.5,127.5,127.5)" fill-opacity="0.5"/><rect x="103" y="102" width="1" height="1" fill="rgb(175.5,255.0,255.0)" fill-opacity="1"/><rect x="105" y="102" width="23" height="1" fill="rgb(127.5,127.5,127.5)" fill-opacity="0.5"/><rect x="0" y="103" width="63" height="1" fill="rgb(127.5,127.5,127.5)" fill-opacity="0.5"/><rect x="64" y="103" width="1" height="1" fill="rgb(207.5,255.0,255.0)" fill-opacity="1"/><rect x="65" y="103" width="38" height="1" fill="rgb(175.5,255.0,255.0)" fill-opacity="1"/><rect x="103" y="103" width="1" height="1" fill="rgb(207.5,255.0,255.0)" fill-opacity="1"/><rect x="105" y="103" width="23" height="1" fill="rgb(127.5,127.5,127.5)" fill-opacity="0.5"/><rect x="0" y="104" width="63" height="1" fill="rgb(127.5,127.5,127.5)" fill-opacity="0.5"/><rect x="105" y="104" width="23" height="1" fill="rgb(127.5,127.5,127.5)" fill-opacity="0.5"/><rect x="0" y="105" width="128" height="1" fill="rgb(127.5,127.5,127.5)" fill-opacity="0.5"/><rect x="0" y="106" width="128" height="1" fill="rgb(127.5,127.5,127.5)" fill-opacity="0.5"/><rect x="0" y="107" width="128" height="1" fill="rgb(127.5,127.5,127.5)" fill-opacity="0.5"/><rect x="0" y="108" width="128" height="1" fill="rgb(127.5,127.5,127.5)" fill-opacity="0.5"/><rect x="0" y="109" width="128" height="1" fill="rgb(127.5,127.5,127.5)" fill-opacity="0.5"/><rect x="0" y="110" width="128" height="1" fill="rgb(127.5,127.5,127.5)" fill-opacity="0.5"/><rect x="0" y="111" width="128" height="1" fill="rgb(127.5,127.5,127.5)" fill-opacity="0.5"/><rect x="0" y="112" width="128" height="1" fill="rgb(127.5,127.5,127.5)" fill-opacity="0.5"/><rect x="0" y="113" width="128" height="1" fill="rgb(127.5,127.5,127.5)" fill-opacity="0.5"/><rect x="0" y="114" width="128" height="1" fill="rgb(127.5,127.5,127.5)" fill-opacity="0.5"/><rect x="0" y="115" width="128" height="1" fill="rgb(127.5,127.5,127.5)" fill-opacity="0.5"/><rect x="0" y="116" width="128" height="1" fill="rgb(127.5,127.5,127.5)" fill-opacity="0.5"/><rect x="0" y="117" width="128" height="1" fill="rgb(127.5,127.5,127.5)" fill-opacity="0.5"/><rect x="0" y="118" width="128" height="1" fill="rgb(127.5,127.5,127.5)" fill-opacity="0.5"/><rect x="0" y="119" width="128" height="1" fill="rgb(127.5,127.5,127.5)" fill-opacity="0.5"/><rect x="0" y="120" width="128" height="1" fill="rgb(127.5,127.5,127.5)" fill-opacity="0.5"/><rect x="0" y="121" width="128" height="1" fill="rgb(127.5,127.5,127.5)" fill-opacity="0.5"/><rect x="0" y="122" width="128" height="1" fill="rgb(127.5,127.5,127.5)" fill-opacity="0.5"/><rect x="0" y="123" width="128" height="1" fill="rgb(127.5,127.5,127.5)" fill-opacity="0.5"/><rect x="0" y="124" width="128" height="1" fill="rgb(127.5,127.5,127.5)" fill-opacity="0.5"/><rect x="0" y="125" width="128" height="1" fill="rgb(127.5,127.5,127.5)" fill-opacity="0.5"/><rect x="0" y="126" width="128" height="1" fill="rgb(127.5,127.5,127.5)" fill-opacity="0.5"/><rect x="0" y="127" width="128" height="1" fill="rgb(127.5,127.5,127.5)" fill-opacity="0.5"/></svg>